<svg xmlns="http://www.w3.org/2000/svg" version="1.1" xmlns:xlink="http://www.w3.org/1999/xlink" xmlns:svgjs="http://svgjs.dev/svgjs" width="1000" height="623" viewBox="0 0 1000 623"><g transform="matrix(1,0,0,1,-0.6060606060606233,0.2522267206477409)"><svg viewBox="0 0 396 247" data-background-color="#ffffff" preserveAspectRatio="xMidYMid meet" height="623" width="1000" xmlns="http://www.w3.org/2000/svg" xmlns:xlink="http://www.w3.org/1999/xlink"><g id="tight-bounds" transform="matrix(1,0,0,1,0.2400000000000091,-0.09999999999999432)"><svg viewBox="0 0 395.52 247.2" height="247.2" width="395.52"><g><svg></svg></g><g><svg viewBox="0 0 395.52 247.2" height="247.2" width="395.52"><g><path xmlns="http://www.w3.org/2000/svg" d="M55.039 247.2l26.403-45.732 232.636 0 26.403 45.732zM197.76 0l26.403 45.732-52.806 0z" fill="#233565" fill-rule="nonzero" stroke="none" stroke-width="1" stroke-linecap="butt" stroke-linejoin="miter" stroke-miterlimit="10" stroke-dasharray="" stroke-dashoffset="0" font-family="none" font-weight="none" font-size="none" text-anchor="none" style="mix-blend-mode: normal" data-fill-palette-color="tertiary"></path></g><g transform="matrix(1,0,0,1,83.3196649514916,67.97999999999999)"><svg viewBox="0 0 228.88067009701678 111.24" height="111.24" width="228.88067009701678"><g><svg viewBox="0 0 397.4975999999999 193.19077056728838" height="111.24" width="228.88067009701678"><g><rect width="397.4975999999999" height="5.917178142989801" x="0" y="106.16915473861914" fill="#233565" opacity="1" stroke-width="0" stroke="transparent" fill-opacity="1" class="rect-o-0" data-fill-palette-color="secondary" rx="1%" id="o-0" data-palette-color="#233565"></rect></g><g transform="matrix(1,0,0,1,0.9887999999999693,127.57632802032569)"><svg viewBox="0 0 395.52 65.61444254696266" height="65.61444254696266" width="395.52"><g id="textblocktransform"><svg viewBox="0 0 395.52 65.61444254696266" height="65.61444254696266" width="395.52" id="textblock"><g><svg viewBox="0 0 395.52 65.61444254696266" height="65.61444254696266" width="395.52"><g transform="matrix(1,0,0,1,0,0)"><svg width="395.52" viewBox="2.200000047683716 -33.5 204.94000244140625 34" height="65.61444254696266" data-palette-color="#233565"><path d="M18.25 0L2.2 0 2.2-0.8 6.45-2.85 6.45-30.15 2.2-32.2 2.2-33 18.25-33 18.25-32.2 14-30.15 14-2.85 18.25-0.8 18.25 0ZM27.2 0L14-16.65 27.7-30.35 24-32.2 24-33 35.8-33 35.8-32.2 32.5-30.8 20.9-19.65 34.8-2.25 38.3-0.8 38.3 0 27.2 0ZM57.05 0L41 0 41-0.8 45.25-2.85 45.25-30.15 41-32.2 41-33 57.05-33 57.05-32.2 52.8-30.15 52.8-2.85 57.05-0.8 57.05 0ZM74.9 0L61.45 0 61.45-0.8 65.7-2.85 65.7-30.1 61.45-32.2 61.45-33 70.95-33 90.35-11.1 90.35-30.2 84.65-32.2 84.65-33 98.05-33 98.05-32.2 93.85-30.15 93.85 0.25 90.75 0.25 69.2-23.85 69.2-2.85 74.9-0.8 74.9 0ZM119.89 0.5L119.89 0.5Q116.29 0.5 113.17-0.73 110.04-1.95 107.67-4.15 105.29-6.35 103.97-9.33 102.64-12.3 102.64-15.8L102.64-15.8Q102.64-19.65 104.14-22.88 105.64-26.1 108.29-28.5 110.94-30.9 114.34-32.2 117.74-33.5 121.49-33.5L121.49-33.5Q124.14-33.5 126.02-33.2 127.89-32.9 129.37-32.35 130.84-31.8 132.29-31.1L132.29-31.1 132.84-22.3 131.94-22.3 127.14-29.55Q125.79-30.4 124.54-30.73 123.29-31.05 121.69-31.05L121.69-31.05Q118.54-31.05 115.99-29.25 113.44-27.45 111.94-24.23 110.44-21 110.44-16.7L110.44-16.7Q110.44-12.2 111.89-8.97 113.34-5.75 115.82-4 118.29-2.25 121.34-2.25L121.34-2.25Q122.19-2.25 123.19-2.33 124.19-2.4 125.19-2.6L125.19-2.6 125.19-11.85 120.74-14.2 120.74-15 136.44-15 136.44-14.2 132.69-11.8 132.69-3.7Q131.14-2.4 128.97-1.48 126.79-0.55 124.42-0.03 122.04 0.5 119.89 0.5ZM167.79 0L140.14 0 140.14-0.8 144.39-2.85 144.39-30.15 140.14-32.2 140.14-33 156.69-33 156.69-32.2 151.94-30.15 151.94-2.75 162.94-2.75 166.99-12.2 167.79-12.2 167.79 0ZM197.69 0L181.19 0 181.19-0.8 185.69-2.85 185.69-15.4 174.79-30.25 171.39-32.2 171.39-33 186.84-33 186.84-32.2 183.09-30.35 183.09-30.15 191.79-18.4 199.59-30.05 199.59-30.25 195.74-32.2 195.74-33 207.14-33 207.14-32.2 203.79-30.55 193.24-15.45 193.24-2.85 197.69-0.8 197.69 0Z" opacity="1" transform="matrix(1,0,0,1,0,0)" fill="#233565" class="wordmark-text-0" data-fill-palette-color="primary" id="text-0"></path></svg></g></svg></g></svg></g></svg></g><g transform="matrix(1,0,0,1,146.06042969035923,0)"><svg viewBox="0 0 105.37674061928149 90.67915959990239" height="90.67915959990239" width="105.37674061928149"><g><svg xmlns="http://www.w3.org/2000/svg" xmlns:xlink="http://www.w3.org/1999/xlink" xml:space="preserve" style="shape-rendering:geometricPrecision;text-rendering:geometricPrecision;image-rendering:optimizeQuality;" viewBox="0 0 20.003799438476562 20.295299530029297" x="8" y="0" fill-rule="evenodd" clip-rule="evenodd" width="89.37674061928149" height="90.67915959990239" class="icon-icon-0" data-fill-palette-color="accent" id="icon-0"><g fill="#8bd8bc" data-fill-palette-color="accent"><polygon class="" points="9.94665,0 11.9715,18.0703 7.92176,18.0703 " fill="#8bd8bc" data-fill-palette-color="accent"></polygon><polygon class="" points="20.0038,9.36975 16.168,18.0703 12.7694,18.0703 " fill="#8bd8bc" data-fill-palette-color="accent"></polygon><polygon class="" points="-0,9.36975 3.83588,18.0703 7.23436,18.0703 " fill="#8bd8bc" data-fill-palette-color="accent"></polygon><polygon class="" points="5.64047,10.7445 5.64047,14.941 7.19616,16.786 7.63026,14.3984 " fill="#8bd8bc" data-fill-palette-color="accent"></polygon><polygon class="" points="14.1963,10.8711 14.1963,15.0676 12.6407,16.9127 12.2066,14.525 " fill="#8bd8bc" data-fill-palette-color="accent"></polygon><polygon class="" points="3.86788,18.5949 16.0233,18.5949 16.0233,20.2953 3.86788,20.2953 " fill="#8bd8bc" data-fill-palette-color="accent"></polygon></g></svg></g></svg></g><g><rect width="18.03575675033744" height="5.917178142989801" y="83.7619814569126" x="251.43717030964072" fill="#233565" data-fill-palette-color="secondary"></rect><rect width="18.03575675033744" height="5.917178142989801" y="83.7619814569126" x="128.0246729400218" fill="#233565" data-fill-palette-color="secondary"></rect></g></svg></g></svg></g></svg></g><defs></defs></svg><rect width="395.52" height="247.2" fill="none" stroke="none" visibility="hidden"></rect></g></svg></g></svg>